# xmcd
#
# Track frame offsets: 
#        150
#        22650
#        47777
#        76012
#        95370
#        116145
#        145200
#        170795
#        208700
#        221345
#
# Disc length: 3362 seconds
#
# Revision: 0
# Processed by: cddbd v1.5.1PL0 Copyright (c) Steve Scherf et al.
# Submitted via: ExactAudioCopy v0.95a5
#
DISCID=820d200a
DTITLE=Sheik Thompson - Colour Of The Light
DYEAR=1997
DGENRE=Blues
TTITLE0=Rainbow Sunshine
TTITLE1=On The Bed
TTITLE2=Colour Of The Light
TTITLE3=London Love Train
TTITLE4=Good Bye Baby, Bye Bye Boy
TTITLE5=River To The Bank Through The Delta To The Sea
TTITLE6=Beyond The Blue
TTITLE7=That One
TTITLE8=Blues Walk - Don't Get Scared
TTITLE9=The Opening "Fathia" The Door (Meditative)
EXTD=
EXTT0=
EXTT1=
EXTT2=
EXTT3=
EXTT4=
EXTT5=
EXTT6=
EXTT7=
EXTT8=
EXTT9=
PLAYORDER=
